# xmcd CD database file
#
# Track frame offsets:
#	150
#	20175
#	46557
#	71600
#	95650
#	125131
#	143568
#	165725
#	193162
#	214125
#	230842
#	254281
#
# Disc length: 3794 seconds
#
# Revision: 2
# Processed by: cddbd v1.4b41PL1 Copyright (c) Steve Scherf et al.
# Submitted via: Feurio! 1.60 - http://www.feurio.com
#
DISCID=b10ed00c,b40ed00c
DTITLE=Leonard Cohen - Unbekannte CD #B40ED00CA0D90B29
DYEAR=1900
DGENRE=
TTITLE0=Field Commander Cohen
TTITLE1=The Window
TTITLE2=The Smokey Life
TTITLE3=The Gypsy´s Wife
TTITLE4=Lover Lover Lover
TTITLE5=Hey, That´s No Way To Say Goodbye
TTITLE6=The Stranger Song
TTITLE7=The Guests
TTITLE8=Memories
TTITLE9=Why Don´t You Try
TTITLE10=Bird On The Wire
TTITLE11=So Long, Marianne
EXTD=
EXTT0=
EXTT1=
EXTT2=
EXTT3=
EXTT4=
EXTT5=
EXTT6=
EXTT7=
EXTT8=
EXTT9=
EXTT10=
EXTT11=
PLAYORDER=
